<svg width="30" height="30" viewBox="0 0 30 30" fill="none" xmlns="http://www.w3.org/2000/svg">
<path d="M2.95508 13.7515H11.4053C12.9492 13.7515 13.7793 13.0376 13.7793 11.3608V2.94385C13.7793 1.28369 12.9492 0.553223 11.4053 0.553223H2.95508C1.41113 0.553223 0.581055 1.28369 0.581055 2.94385V11.3608C0.581055 13.0376 1.41113 13.7515 2.95508 13.7515ZM19.1416 13.7515H27.5918C29.1357 13.7515 29.9658 13.0376 29.9658 11.3608V2.94385C29.9658 1.28369 29.1357 0.553223 27.5918 0.553223H19.1416C17.5977 0.553223 16.7676 1.28369 16.7676 2.94385V11.3608C16.7676 13.0376 17.5977 13.7515 19.1416 13.7515ZM2.98828 12.5894C2.1084 12.5894 1.74316 12.2241 1.74316 11.3276V2.97705C1.74316 2.08057 2.1084 1.71533 2.98828 1.71533H11.3555C12.252 1.71533 12.6172 2.08057 12.6172 2.97705V11.3276C12.6172 12.2241 12.252 12.5894 11.3555 12.5894H2.98828ZM19.1914 12.5894C18.2949 12.5894 17.9297 12.2241 17.9297 11.3276V2.97705C17.9297 2.08057 18.2949 1.71533 19.1914 1.71533H27.5586C28.4385 1.71533 28.8037 2.08057 28.8037 2.97705V11.3276C28.8037 12.2241 28.4385 12.5894 27.5586 12.5894H19.1914ZM5.91016 8.70459H8.43359C8.64941 8.70459 8.73242 8.62158 8.73242 8.35596V5.93213C8.73242 5.68311 8.64941 5.6001 8.43359 5.6001H5.91016C5.69434 5.6001 5.62793 5.68311 5.62793 5.93213V8.35596C5.62793 8.62158 5.69434 8.70459 5.91016 8.70459ZM22.1133 8.70459H24.6367C24.8525 8.70459 24.9521 8.62158 24.9521 8.35596V5.93213C24.9521 5.68311 24.8525 5.6001 24.6367 5.6001H22.1133C21.8975 5.6001 21.8311 5.68311 21.8311 5.93213V8.35596C21.8311 8.62158 21.8975 8.70459 22.1133 8.70459ZM2.95508 29.938H11.4053C12.9492 29.938 13.7793 29.2241 13.7793 27.5474V19.1304C13.7793 17.4702 12.9492 16.7397 11.4053 16.7397H2.95508C1.41113 16.7397 0.581055 17.4702 0.581055 19.1304V27.5474C0.581055 29.2241 1.41113 29.938 2.95508 29.938ZM17.6973 20.4917H20.2041C20.4365 20.4917 20.5195 20.4087 20.5195 20.1431V17.7026C20.5195 17.4702 20.4365 17.3706 20.2041 17.3706H17.6973C17.4648 17.3706 17.3984 17.4702 17.3984 17.7026V20.1431C17.3984 20.4087 17.4648 20.4917 17.6973 20.4917ZM26.5127 20.4917H29.0195C29.252 20.4917 29.335 20.4087 29.335 20.1431V17.7026C29.335 17.4702 29.252 17.3706 29.0195 17.3706H26.5127C26.2803 17.3706 26.2139 17.4702 26.2139 17.7026V20.1431C26.2139 20.4087 26.2803 20.4917 26.5127 20.4917ZM2.98828 28.7759C2.1084 28.7759 1.74316 28.4106 1.74316 27.5142V19.1636C1.74316 18.2671 2.1084 17.9019 2.98828 17.9019H11.3555C12.252 17.9019 12.6172 18.2671 12.6172 19.1636V27.5142C12.6172 28.4106 12.252 28.7759 11.3555 28.7759H2.98828ZM5.91016 24.9077H8.43359C8.64941 24.9077 8.73242 24.8081 8.73242 24.5425V22.1187C8.73242 21.8696 8.64941 21.7866 8.43359 21.7866H5.91016C5.69434 21.7866 5.62793 21.8696 5.62793 22.1187V24.5425C5.62793 24.8081 5.69434 24.9077 5.91016 24.9077ZM22.1465 24.9077H24.6699C24.8857 24.9077 24.9688 24.8081 24.9688 24.5425V22.1187C24.9688 21.8696 24.8857 21.7866 24.6699 21.7866H22.1465C21.9141 21.7866 21.8477 21.8696 21.8477 22.1187V24.5425C21.8477 24.8081 21.9141 24.9077 22.1465 24.9077ZM17.6973 29.3071H20.2041C20.4365 29.3071 20.5195 29.2241 20.5195 28.9585V26.5181C20.5195 26.2856 20.4365 26.186 20.2041 26.186H17.6973C17.4648 26.186 17.3984 26.2856 17.3984 26.5181V28.9585C17.3984 29.2241 17.4648 29.3071 17.6973 29.3071ZM26.5127 29.3071H29.0195C29.252 29.3071 29.335 29.2241 29.335 28.9585V26.5181C29.335 26.2856 29.252 26.186 29.0195 26.186H26.5127C26.2803 26.186 26.2139 26.2856 26.2139 26.5181V28.9585C26.2139 29.2241 26.2803 29.3071 26.5127 29.3071Z" fill="#0A84FF"/>
<path d="M2.95508 13.7515H11.4053C12.9492 13.7515 13.7793 13.0376 13.7793 11.3608V2.94385C13.7793 1.28369 12.9492 0.553223 11.4053 0.553223H2.95508C1.41113 0.553223 0.581055 1.28369 0.581055 2.94385V11.3608C0.581055 13.0376 1.41113 13.7515 2.95508 13.7515ZM19.1416 13.7515H27.5918C29.1357 13.7515 29.9658 13.0376 29.9658 11.3608V2.94385C29.9658 1.28369 29.1357 0.553223 27.5918 0.553223H19.1416C17.5977 0.553223 16.7676 1.28369 16.7676 2.94385V11.3608C16.7676 13.0376 17.5977 13.7515 19.1416 13.7515ZM2.98828 12.5894C2.1084 12.5894 1.74316 12.2241 1.74316 11.3276V2.97705C1.74316 2.08057 2.1084 1.71533 2.98828 1.71533H11.3555C12.252 1.71533 12.6172 2.08057 12.6172 2.97705V11.3276C12.6172 12.2241 12.252 12.5894 11.3555 12.5894H2.98828ZM19.1914 12.5894C18.2949 12.5894 17.9297 12.2241 17.9297 11.3276V2.97705C17.9297 2.08057 18.2949 1.71533 19.1914 1.71533H27.5586C28.4385 1.71533 28.8037 2.08057 28.8037 2.97705V11.3276C28.8037 12.2241 28.4385 12.5894 27.5586 12.5894H19.1914ZM5.91016 8.70459H8.43359C8.64941 8.70459 8.73242 8.62158 8.73242 8.35596V5.93213C8.73242 5.68311 8.64941 5.6001 8.43359 5.6001H5.91016C5.69434 5.6001 5.62793 5.68311 5.62793 5.93213V8.35596C5.62793 8.62158 5.69434 8.70459 5.91016 8.70459ZM22.1133 8.70459H24.6367C24.8525 8.70459 24.9521 8.62158 24.9521 8.35596V5.93213C24.9521 5.68311 24.8525 5.6001 24.6367 5.6001H22.1133C21.8975 5.6001 21.8311 5.68311 21.8311 5.93213V8.35596C21.8311 8.62158 21.8975 8.70459 22.1133 8.70459ZM2.95508 29.938H11.4053C12.9492 29.938 13.7793 29.2241 13.7793 27.5474V19.1304C13.7793 17.4702 12.9492 16.7397 11.4053 16.7397H2.95508C1.41113 16.7397 0.581055 17.4702 0.581055 19.1304V27.5474C0.581055 29.2241 1.41113 29.938 2.95508 29.938ZM17.6973 20.4917H20.2041C20.4365 20.4917 20.5195 20.4087 20.5195 20.1431V17.7026C20.5195 17.4702 20.4365 17.3706 20.2041 17.3706H17.6973C17.4648 17.3706 17.3984 17.4702 17.3984 17.7026V20.1431C17.3984 20.4087 17.4648 20.4917 17.6973 20.4917ZM26.5127 20.4917H29.0195C29.252 20.4917 29.335 20.4087 29.335 20.1431V17.7026C29.335 17.4702 29.252 17.3706 29.0195 17.3706H26.5127C26.2803 17.3706 26.2139 17.4702 26.2139 17.7026V20.1431C26.2139 20.4087 26.2803 20.4917 26.5127 20.4917ZM2.98828 28.7759C2.1084 28.7759 1.74316 28.4106 1.74316 27.5142V19.1636C1.74316 18.2671 2.1084 17.9019 2.98828 17.9019H11.3555C12.252 17.9019 12.6172 18.2671 12.6172 19.1636V27.5142C12.6172 28.4106 12.252 28.7759 11.3555 28.7759H2.98828ZM5.91016 24.9077H8.43359C8.64941 24.9077 8.73242 24.8081 8.73242 24.5425V22.1187C8.73242 21.8696 8.64941 21.7866 8.43359 21.7866H5.91016C5.69434 21.7866 5.62793 21.8696 5.62793 22.1187V24.5425C5.62793 24.8081 5.69434 24.9077 5.91016 24.9077ZM22.1465 24.9077H24.6699C24.8857 24.9077 24.9688 24.8081 24.9688 24.5425V22.1187C24.9688 21.8696 24.8857 21.7866 24.6699 21.7866H22.1465C21.9141 21.7866 21.8477 21.8696 21.8477 22.1187V24.5425C21.8477 24.8081 21.9141 24.9077 22.1465 24.9077ZM17.6973 29.3071H20.2041C20.4365 29.3071 20.5195 29.2241 20.5195 28.9585V26.5181C20.5195 26.2856 20.4365 26.186 20.2041 26.186H17.6973C17.4648 26.186 17.3984 26.2856 17.3984 26.5181V28.9585C17.3984 29.2241 17.4648 29.3071 17.6973 29.3071ZM26.5127 29.3071H29.0195C29.252 29.3071 29.335 29.2241 29.335 28.9585V26.5181C29.335 26.2856 29.252 26.186 29.0195 26.186H26.5127C26.2803 26.186 26.2139 26.2856 26.2139 26.5181V28.9585C26.2139 29.2241 26.2803 29.3071 26.5127 29.3071Z" fill="#0A84FF"/>
<path d="M2.95508 13.7515H11.4053C12.9492 13.7515 13.7793 13.0376 13.7793 11.3608V2.94385C13.7793 1.28369 12.9492 0.553223 11.4053 0.553223H2.95508C1.41113 0.553223 0.581055 1.28369 0.581055 2.94385V11.3608C0.581055 13.0376 1.41113 13.7515 2.95508 13.7515ZM19.1416 13.7515H27.5918C29.1357 13.7515 29.9658 13.0376 29.9658 11.3608V2.94385C29.9658 1.28369 29.1357 0.553223 27.5918 0.553223H19.1416C17.5977 0.553223 16.7676 1.28369 16.7676 2.94385V11.3608C16.7676 13.0376 17.5977 13.7515 19.1416 13.7515ZM2.98828 12.5894C2.1084 12.5894 1.74316 12.2241 1.74316 11.3276V2.97705C1.74316 2.08057 2.1084 1.71533 2.98828 1.71533H11.3555C12.252 1.71533 12.6172 2.08057 12.6172 2.97705V11.3276C12.6172 12.2241 12.252 12.5894 11.3555 12.5894H2.98828ZM19.1914 12.5894C18.2949 12.5894 17.9297 12.2241 17.9297 11.3276V2.97705C17.9297 2.08057 18.2949 1.71533 19.1914 1.71533H27.5586C28.4385 1.71533 28.8037 2.08057 28.8037 2.97705V11.3276C28.8037 12.2241 28.4385 12.5894 27.5586 12.5894H19.1914ZM5.91016 8.70459H8.43359C8.64941 8.70459 8.73242 8.62158 8.73242 8.35596V5.93213C8.73242 5.68311 8.64941 5.6001 8.43359 5.6001H5.91016C5.69434 5.6001 5.62793 5.68311 5.62793 5.93213V8.35596C5.62793 8.62158 5.69434 8.70459 5.91016 8.70459ZM22.1133 8.70459H24.6367C24.8525 8.70459 24.9521 8.62158 24.9521 8.35596V5.93213C24.9521 5.68311 24.8525 5.6001 24.6367 5.6001H22.1133C21.8975 5.6001 21.8311 5.68311 21.8311 5.93213V8.35596C21.8311 8.62158 21.8975 8.70459 22.1133 8.70459ZM2.95508 29.938H11.4053C12.9492 29.938 13.7793 29.2241 13.7793 27.5474V19.1304C13.7793 17.4702 12.9492 16.7397 11.4053 16.7397H2.95508C1.41113 16.7397 0.581055 17.4702 0.581055 19.1304V27.5474C0.581055 29.2241 1.41113 29.938 2.95508 29.938ZM17.6973 20.4917H20.2041C20.4365 20.4917 20.5195 20.4087 20.5195 20.1431V17.7026C20.5195 17.4702 20.4365 17.3706 20.2041 17.3706H17.6973C17.4648 17.3706 17.3984 17.4702 17.3984 17.7026V20.1431C17.3984 20.4087 17.4648 20.4917 17.6973 20.4917ZM26.5127 20.4917H29.0195C29.252 20.4917 29.335 20.4087 29.335 20.1431V17.7026C29.335 17.4702 29.252 17.3706 29.0195 17.3706H26.5127C26.2803 17.3706 26.2139 17.4702 26.2139 17.7026V20.1431C26.2139 20.4087 26.2803 20.4917 26.5127 20.4917ZM2.98828 28.7759C2.1084 28.7759 1.74316 28.4106 1.74316 27.5142V19.1636C1.74316 18.2671 2.1084 17.9019 2.98828 17.9019H11.3555C12.252 17.9019 12.6172 18.2671 12.6172 19.1636V27.5142C12.6172 28.4106 12.252 28.7759 11.3555 28.7759H2.98828ZM5.91016 24.9077H8.43359C8.64941 24.9077 8.73242 24.8081 8.73242 24.5425V22.1187C8.73242 21.8696 8.64941 21.7866 8.43359 21.7866H5.91016C5.69434 21.7866 5.62793 21.8696 5.62793 22.1187V24.5425C5.62793 24.8081 5.69434 24.9077 5.91016 24.9077ZM22.1465 24.9077H24.6699C24.8857 24.9077 24.9688 24.8081 24.9688 24.5425V22.1187C24.9688 21.8696 24.8857 21.7866 24.6699 21.7866H22.1465C21.9141 21.7866 21.8477 21.8696 21.8477 22.1187V24.5425C21.8477 24.8081 21.9141 24.9077 22.1465 24.9077ZM17.6973 29.3071H20.2041C20.4365 29.3071 20.5195 29.2241 20.5195 28.9585V26.5181C20.5195 26.2856 20.4365 26.186 20.2041 26.186H17.6973C17.4648 26.186 17.3984 26.2856 17.3984 26.5181V28.9585C17.3984 29.2241 17.4648 29.3071 17.6973 29.3071ZM26.5127 29.3071H29.0195C29.252 29.3071 29.335 29.2241 29.335 28.9585V26.5181C29.335 26.2856 29.252 26.186 29.0195 26.186H26.5127C26.2803 26.186 26.2139 26.2856 26.2139 26.5181V28.9585C26.2139 29.2241 26.2803 29.3071 26.5127 29.3071Z" fill="white"/>
</svg>
