<svg width="30" height="30" viewBox="0 0 30 30" fill="none" xmlns="http://www.w3.org/2000/svg">
<path fill-rule="evenodd" clip-rule="evenodd" d="M24.9833 25.2761H5.25033C2.85533 25.2761 1.6521 24.0958 1.6521 21.7352V9.256C1.6521 6.89538 2.85533 5.70361 5.25033 5.70361H24.9833C27.3897 5.70361 28.5815 6.89538 28.5815 9.256V21.7352C28.5815 24.0958 27.3897 25.2761 24.9833 25.2761ZM5.27325 7.54856C4.12731 7.54856 3.49705 8.16737 3.49705 9.35914V10.2644H26.7366V9.35914C26.7366 8.16737 26.0834 7.54856 24.9604 7.54856H5.27325ZM3.49705 21.6321C3.49705 22.8238 4.12731 23.4312 5.27325 23.4312H24.9604C26.0834 23.4312 26.7366 22.8238 26.7366 21.6321V12.8657H3.49705V21.6321Z" fill="white"/>
<path d="M8.86671 22.0273C10.7903 22.0273 12.3829 20.4312 12.3829 18.5111C12.3829 16.5876 10.7868 14.9949 8.86326 14.9949C6.94316 14.9949 5.35055 16.5876 5.35055 18.5111C5.35055 20.4312 6.94661 22.0273 8.86671 22.0273ZM7.18447 18.5146C7.18447 18.3353 7.30857 18.2112 7.48782 18.2112H8.5668V17.1322C8.5668 16.953 8.68745 16.8254 8.86326 16.8254C9.04252 16.8254 9.16662 16.953 9.16662 17.1322V18.2112H10.249C10.4249 18.2112 10.5524 18.3353 10.5524 18.5146C10.5524 18.6904 10.4249 18.8076 10.249 18.8076H9.16662V19.89C9.16662 20.0693 9.04252 20.1934 8.86326 20.1934C8.68745 20.1934 8.5668 20.0658 8.5668 19.89V18.8076H7.48782C7.30857 18.8076 7.18447 18.6904 7.18447 18.5146Z" fill="white"/>
</svg>
