<svg width="30" height="30" viewBox="0 0 30 30" fill="none" xmlns="http://www.w3.org/2000/svg">
<g clip-path="url(#clip0_453:4789)">
<path d="M5.16168 4.71587H26.1658C26.7845 4.71587 27.2861 4.21429 27.2861 3.59556V3.36074C27.2861 2.74201 26.7845 2.24043 26.1658 2.24043H3.78286C3.16413 2.24043 2.66255 2.74201 2.66255 3.36074V3.59556C2.66255 4.21429 3.16413 4.71587 3.78286 4.71587H5.16168Z" stroke="white" stroke-width="1.49375"/>
<path d="M5.1673 28.6465H26.1714C26.7901 28.6465 27.2917 28.145 27.2917 27.5262V27.2914C27.2917 26.6727 26.7901 26.1711 26.1714 26.1711H3.78848C3.16975 26.1711 2.66816 26.6727 2.66816 27.2914V27.5262C2.66816 28.145 3.16974 28.6465 3.78848 28.6465H5.1673Z" stroke="white" stroke-width="1.49375"/>
<path d="M4.15845 25.5483V19.874V14.1904M25.7907 14.1904V25.6475" stroke="white" stroke-width="1.49375"/>
<path d="M1.49365 11.2031L4.15824 4.75586" stroke="white" stroke-width="1.49375"/>
<path d="M8.12207 11.2029L9.56914 4.62109" stroke="white" stroke-width="1.49375"/>
<path d="M20.5391 4.62129L21.9861 11.2031" stroke="white" stroke-width="1.49375"/>
<path d="M14.9797 4.76094V11.3428" stroke="white" stroke-width="1.49375"/>
<path d="M25.6504 4.71173L28.3812 12.0977" stroke="white" stroke-width="1.49375"/>
<path d="M0.8479 11.2031L28.708 11.4832" stroke="white" stroke-width="1.49375"/>
<path fill-rule="evenodd" clip-rule="evenodd" d="M0.847656 11.8579C1.18175 13.7356 2.82247 15.1613 4.79617 15.1613C6.21617 15.1613 7.46381 14.4233 8.1765 13.31C8.8892 14.4233 10.1368 15.1612 11.5568 15.1612C12.9768 15.1612 14.2245 14.4232 14.9372 13.3097C15.6499 14.4232 16.8975 15.1612 18.3176 15.1612C19.7377 15.1612 20.9854 14.4231 21.6981 13.3096C22.4108 14.4228 23.6584 15.1606 25.0783 15.1606C27.0517 15.1606 28.6923 13.7353 29.0267 11.8579H27.4943C27.1884 12.9033 26.2225 13.6669 25.0783 13.6669C23.934 13.6669 22.9681 12.9033 22.6623 11.8579H20.7338C20.4281 12.9036 19.4621 13.6674 18.3176 13.6674C17.1731 13.6674 16.2071 12.9036 15.9014 11.8579H13.9729C13.6673 12.9036 12.7012 13.6674 11.5568 13.6674C10.4123 13.6674 9.44625 12.9036 9.1406 11.8579H7.21236C6.90675 12.9037 5.94067 13.6675 4.79617 13.6675C3.65168 13.6675 2.6856 12.9037 2.37998 11.8579H0.847656Z" fill="white"/>
<path d="M23.1998 25.6472V17.9246C23.1998 17.5121 22.8654 17.1777 22.4529 17.1777H19.4188C19.0063 17.1777 18.6719 17.5121 18.6719 17.9246V25.6472" stroke="white" stroke-width="1.12031"/>
<mask id="path-12-inside-1_453:4789" fill="white">
<rect x="6.07495" y="16.4316" width="10.3563" height="6.0917" rx="0.746875"/>
</mask>
<rect x="6.07495" y="16.4316" width="10.3563" height="6.0917" rx="0.746875" stroke="white" stroke-width="2.24062" mask="url(#path-12-inside-1_453:4789)"/>
</g>
<defs>
<clipPath id="clip0_453:4789">
<rect width="29.875" height="29.875" fill="white"/>
</clipPath>
</defs>
</svg>
