<svg width="41" height="41" viewBox="0 0 41 41" fill="none" xmlns="http://www.w3.org/2000/svg">
<path d="M36.2734 24.7708V32.6987C36.2734 33.8033 35.378 34.6987 34.2734 34.6987H7.27344C6.16887 34.6987 5.27344 33.8033 5.27344 32.6987V13.4282C5.27344 12.3237 6.16887 11.4282 7.27344 11.4282H34.2734C35.378 11.4282 36.2734 12.3237 36.2734 13.4282V21.055" stroke="white"/>
<rect x="27.3936" y="21.1399" width="10.8802" height="3.847" rx="1.9235" stroke="white"/>
<path fill-rule="evenodd" clip-rule="evenodd" d="M11.7654 7.9408L26.446 2.19618C26.9603 1.99493 27.5011 2.26204 27.6538 2.79279L28.5432 5.88428L29.544 5.76161L28.585 2.42839C28.2796 1.36689 27.1982 0.83266 26.1695 1.23517L8.10535 8.30378C7.96679 8.35801 7.83626 8.42646 7.71484 8.50692C7.87635 8.44172 8.04831 8.39642 8.22801 8.37439L11.7654 7.9408Z" fill="white"/>
<path fill-rule="evenodd" clip-rule="evenodd" d="M8.36357 8.87468L31.2487 6.06957C31.7968 6.00238 32.2814 6.39381 32.331 6.94387L32.7635 11.7431H33.7493C33.7553 11.7431 33.7612 11.7431 33.7671 11.7432L33.3236 6.82221C33.2244 5.72209 32.2553 4.93922 31.1589 5.0736L8.27381 7.87871C7.17745 8.0131 6.36904 9.01385 6.46819 10.114L6.61501 11.7431H7.61855L7.46076 9.9923C7.41119 9.44225 7.81539 8.94187 8.36357 8.87468Z" fill="white"/>
</svg>
